<svg width="24" height="24" viewBox="0 0 24 24" fill="none" xmlns="http://www.w3.org/2000/svg">
<path d="M17 3C16.2044 3 15.4413 3.31607 14.8787 3.87868C14.3161 4.44129 14 5.20435 14 6V7C14 7.79565 14.3161 8.55871 14.8787 9.12132C15.4413 9.68393 16.2044 10 17 10C17.7956 10 18.5587 9.68393 19.1213 9.12132C19.6839 8.55871 20 7.79565 20 7V6C20 5.20435 19.6839 4.44129 19.1213 3.87868C18.5587 3.31607 17.7956 3 17 3Z" fill="url(#paint0_linear_107_343)"/>
<path d="M9 2C7.93913 2 6.92172 2.42143 6.17157 3.17157C5.42143 3.92172 5 4.93913 5 6V7C5 8.06087 5.42143 9.07828 6.17157 9.82843C6.92172 10.5786 7.93913 11 9 11C10.0609 11 11.0783 10.5786 11.8284 9.82843C12.5786 9.07828 13 8.06087 13 7V6C13 4.93913 12.5786 3.92172 11.8284 3.17157C11.0783 2.42143 10.0609 2 9 2Z" fill="url(#paint1_linear_107_343)"/>
<path d="M17 11C15.6744 11.0016 14.4036 11.5289 13.4662 12.4662C12.5289 13.4036 12.0016 14.6744 12 16V18C12 18.2652 12.1054 18.5196 12.2929 18.7071C12.4804 18.8946 12.7348 19 13 19H21C21.2652 19 21.5196 18.8946 21.7071 18.7071C21.8946 18.5196 22 18.2652 22 18V16C21.9984 14.6744 21.4711 13.4036 20.5338 12.4662C19.5964 11.5289 18.3256 11.0016 17 11Z" fill="url(#paint2_linear_107_343)"/>
<path d="M9 12C7.14413 12.0021 5.36489 12.7403 4.05259 14.0526C2.7403 15.3649 2.00212 17.1441 2 19V21C2 21.2652 2.10536 21.5196 2.29289 21.7071C2.48043 21.8946 2.73478 22 3 22H15C15.2652 22 15.5196 21.8946 15.7071 21.7071C15.8946 21.5196 16 21.2652 16 21V19C15.9979 17.1441 15.2597 15.3649 13.9474 14.0526C12.6351 12.7403 10.8559 12.0021 9 12Z" fill="url(#paint3_linear_107_343)"/>
<defs>
<linearGradient id="paint0_linear_107_343" x1="14" y1="6.5" x2="20" y2="6.5" gradientUnits="userSpaceOnUse">
<stop stop-color="#DBDADA"/>
<stop offset="1" stop-color="#C7C2BF"/>
</linearGradient>
<linearGradient id="paint1_linear_107_343" x1="5" y1="6.5" x2="13" y2="6.5" gradientUnits="userSpaceOnUse">
<stop stop-color="#DBDADA"/>
<stop offset="1" stop-color="#C7C2BF"/>
</linearGradient>
<linearGradient id="paint2_linear_107_343" x1="13.0395" y1="12.7866" x2="19.2211" y2="20.5138" gradientUnits="userSpaceOnUse">
<stop stop-color="#2160E1"/>
<stop offset="1" stop-color="#638FE8"/>
</linearGradient>
<linearGradient id="paint3_linear_107_343" x1="3.45534" y1="14.2333" x2="10.9473" y2="24.7224" gradientUnits="userSpaceOnUse">
<stop stop-color="#2160E1"/>
<stop offset="1" stop-color="#638FE8"/>
</linearGradient>
</defs>
</svg>
