<svg width="24" height="24" viewBox="0 0 24 24" fill="none" xmlns="http://www.w3.org/2000/svg">
<path d="M21.447 16.105L17.447 14.105C17.2592 14.0113 17.0468 13.979 16.8397 14.0128C16.6326 14.0465 16.4413 14.1446 16.293 14.293L14.618 15.968C12.211 15.581 8.418 11.789 8.032 9.38201L9.707 7.70701C9.85545 7.5587 9.95349 7.36746 9.98723 7.16035C10.021 6.95324 9.9887 6.74077 9.895 6.55301L7.895 2.55301C7.82953 2.4219 7.73604 2.30677 7.62115 2.21579C7.50626 2.12481 7.37277 2.0602 7.23014 2.02652C7.08751 1.99284 6.93922 1.99092 6.79577 2.0209C6.65231 2.05088 6.5172 2.11203 6.4 2.20001L2.4 5.20001C2.2758 5.29316 2.175 5.41394 2.10557 5.5528C2.03614 5.69165 2 5.84476 2 6.00001C2 15.57 8.43 22 18 22C18.1552 22 18.3084 21.9639 18.4472 21.8944C18.5861 21.825 18.7069 21.7242 18.8 21.6L21.8 17.6C21.888 17.4828 21.9491 17.3477 21.9791 17.2042C22.0091 17.0608 22.0072 16.9125 21.9735 16.7699C21.9398 16.6272 21.8752 16.4938 21.7842 16.3789C21.6932 16.264 21.5781 16.1705 21.447 16.105Z" fill="url(#paint0_linear_107_351)"/>
<path d="M13.5 4C15.2233 4.00212 16.8753 4.68762 18.0939 5.90614C19.3124 7.12467 19.9979 8.77674 20 10.5C20 10.7652 20.1054 11.0196 20.2929 11.2071C20.4804 11.3946 20.7348 11.5 21 11.5C21.2652 11.5 21.5196 11.3946 21.7071 11.2071C21.8946 11.0196 22 10.7652 22 10.5C21.9974 8.24647 21.101 6.086 19.5075 4.49252C17.914 2.89903 15.7535 2.00265 13.5 2C13.2348 2 12.9804 2.10536 12.7929 2.29289C12.6054 2.48043 12.5 2.73478 12.5 3C12.5 3.26522 12.6054 3.51957 12.7929 3.70711C12.9804 3.89464 13.2348 4 13.5 4Z" fill="url(#paint1_linear_107_351)"/>
<path d="M13.5 8C14.163 8 14.7989 8.26339 15.2678 8.73223C15.7366 9.20107 16 9.83696 16 10.5C16 10.7652 16.1054 11.0196 16.2929 11.2071C16.4804 11.3946 16.7348 11.5 17 11.5C17.2652 11.5 17.5196 11.3946 17.7071 11.2071C17.8946 11.0196 18 10.7652 18 10.5C18 9.30653 17.5259 8.16193 16.682 7.31802C15.8381 6.47411 14.6935 6 13.5 6C13.2348 6 12.9804 6.10536 12.7929 6.29289C12.6054 6.48043 12.5 6.73478 12.5 7C12.5 7.26522 12.6054 7.51957 12.7929 7.70711C12.9804 7.89464 13.2348 8 13.5 8Z" fill="url(#paint2_linear_107_351)"/>
<defs>
<linearGradient id="paint0_linear_107_351" x1="4.07908" y1="6.46641" x2="19.9196" y2="22.3075" gradientUnits="userSpaceOnUse">
<stop stop-color="#2160E1"/>
<stop offset="1" stop-color="#638FE8"/>
</linearGradient>
<linearGradient id="paint1_linear_107_351" x1="12.5" y1="6.75" x2="22" y2="6.75" gradientUnits="userSpaceOnUse">
<stop stop-color="#DBDADA"/>
<stop offset="1" stop-color="#C7C2BF"/>
</linearGradient>
<linearGradient id="paint2_linear_107_351" x1="12.5" y1="8.75" x2="18" y2="8.75" gradientUnits="userSpaceOnUse">
<stop stop-color="#DBDADA"/>
<stop offset="1" stop-color="#C7C2BF"/>
</linearGradient>
</defs>
</svg>
