<svg width="24" height="24" viewBox="0 0 24 24" fill="none" xmlns="http://www.w3.org/2000/svg">
<path d="M20.6731 7.29101L13.6731 2.51801C13.1809 2.1793 12.5975 1.99796 12.0001 1.99796C11.4026 1.99796 10.8192 2.1793 10.3271 2.51801L3.32707 7.29101C2.91646 7.57243 2.5809 7.94999 2.34961 8.39078C2.11832 8.83157 1.99832 9.32223 2.00007 9.82001V18.954C1.99474 19.7555 2.30763 20.5264 2.87008 21.0975C3.43252 21.6686 4.19856 21.9931 5.00007 22H19.0001C19.8016 21.9931 20.5676 21.6686 21.1301 21.0975C21.6925 20.5264 22.0054 19.7555 22.0001 18.954V9.82001C22.0018 9.32223 21.8818 8.83157 21.6505 8.39078C21.4192 7.94999 21.0837 7.57243 20.6731 7.29101Z" fill="url(#paint0_linear_107_338)"/>
<path d="M15 13H9C8.44772 13 8 13.4477 8 14V21C8 21.5523 8.44772 22 9 22H15C15.5523 22 16 21.5523 16 21V14C16 13.4477 15.5523 13 15 13Z" fill="url(#paint1_linear_107_338)"/>
<defs>
<linearGradient id="paint0_linear_107_338" x1="4.07907" y1="6.46501" x2="19.9211" y2="22.306" gradientUnits="userSpaceOnUse">
<stop stop-color="#2160E1"/>
<stop offset="1" stop-color="#638FE8"/>
</linearGradient>
<linearGradient id="paint1_linear_107_338" x1="8.043" y1="13.543" x2="15.957" y2="21.457" gradientUnits="userSpaceOnUse">
<stop stop-color="white"/>
<stop offset="1" stop-color="#C9C0BC"/>
</linearGradient>
</defs>
</svg>
