<svg width="77" height="24" viewBox="0 0 77 24" fill="none" xmlns="http://www.w3.org/2000/svg">
<path d="M76.8823 18.331H73.3034V10.0135C73.3034 9.22369 73.1454 8.59188 72.8295 8.11801C72.5136 7.63584 72.0023 7.39475 71.2957 7.39475C70.5891 7.39475 70.0196 7.61506 69.5873 8.05566C69.155 8.49627 68.9388 9.16134 68.9388 10.0509V18.331H65.3599V9.85135C65.3599 9.00339 65.1895 8.38404 64.8487 7.99331C64.5078 7.59427 63.9633 7.39475 63.2151 7.39475C62.4669 7.39475 61.9099 7.61921 61.5441 8.06813C61.1783 8.50874 60.9954 9.16966 60.9954 10.0509V18.331H57.4165V4.73863H60.8458V6.73384H60.8957C61.6937 5.17092 63.0073 4.38947 64.8362 4.38947C66.4989 4.38947 67.7293 5.11273 68.5273 6.55926C69.4335 5.11273 70.6431 4.38947 72.1561 4.38947C73.5528 4.38947 74.6875 4.78851 75.5605 5.58659C76.4417 6.37636 76.8823 7.49035 76.8823 8.92857V18.331Z" fill="#3971E3"/>
<path d="M54.946 18.3309H51.5292V16.4105H51.4793C50.5732 17.9319 49.1932 18.6926 47.3393 18.6926C45.9011 18.6926 44.7705 18.2686 43.9474 17.4206C43.1244 16.5726 42.7129 15.3256 42.7129 13.6796V4.73856H46.2918V13.1683C46.2918 14.0329 46.4913 14.6689 46.8904 15.0762C47.2894 15.4753 47.863 15.6748 48.6112 15.6748C49.4176 15.6748 50.0785 15.4088 50.594 14.8767C51.1094 14.3363 51.3671 13.5715 51.3671 12.5822V4.73856H54.946V18.3309Z" fill="#3971E3"/>
<path d="M33.0853 18.331H29.5063V3.05176e-05H33.0853V9.90126L37.5745 4.73865H41.9764L37.1754 10.001L42.1011 18.331H37.8114L34.5692 12.5075L33.0853 14.0413V18.331Z" fill="#3971E3"/>
<path d="M24.1684 11.535C24.1684 10.2381 23.8983 9.22388 23.3579 8.4923C22.8258 7.76072 22.0194 7.39493 20.9387 7.39493C19.9328 7.39493 19.143 7.73994 18.5694 8.42995C17.9958 9.11165 17.7089 10.1467 17.7089 11.535C17.7089 12.8984 17.9874 13.9292 18.5444 14.6276C19.1014 15.3259 19.8995 15.6751 20.9387 15.6751C22.0111 15.6751 22.8175 15.3134 23.3579 14.5902C23.8983 13.8669 24.1684 12.8485 24.1684 11.535ZM27.8471 11.535C27.8471 13.7547 27.207 15.5046 25.9267 16.7849C24.6548 18.0568 22.9921 18.6928 20.9387 18.6928C18.9185 18.6928 17.26 18.061 15.9631 16.7974C14.6746 15.5254 14.0303 13.7713 14.0303 11.535C14.0303 9.28207 14.6746 7.52795 15.9631 6.27263C17.26 5.01731 18.9185 4.38965 20.9387 4.38965C23.0087 4.38965 24.6756 5.03394 25.9392 6.32251C27.2111 7.60277 27.8471 9.34026 27.8471 11.535Z" fill="#3971E3"/>
<path d="M3.4168 11.8466C3.4168 13.0437 3.69114 13.9956 4.23982 14.7022C4.78851 15.4005 5.56165 15.7497 6.55925 15.7497C7.47373 15.7497 8.19283 15.359 8.71658 14.5775C9.24032 13.7877 9.50219 12.8068 9.50219 11.6346C9.50219 10.2878 9.23201 9.2611 8.69164 8.55447C8.15958 7.83952 7.41553 7.48204 6.45949 7.48204C5.43695 7.48204 4.67212 7.85614 4.165 8.60435C3.6662 9.34424 3.4168 10.425 3.4168 11.8466ZM3.4168 6.7089H3.47915C4.35205 5.16261 5.70298 4.38947 7.53192 4.38947C9.16134 4.38947 10.5081 5.01297 11.5722 6.25998C12.6446 7.49867 13.1809 9.20707 13.1809 11.3852C13.1809 13.5217 12.6821 15.2758 11.6845 16.6475C10.6952 18.0109 9.28604 18.6926 7.4571 18.6926C5.66972 18.6926 4.39362 17.9943 3.62879 16.5977H3.57891V24H0V4.73863H3.4168V6.7089Z" fill="#3971E3"/>
</svg>
