<svg width="1440" height="443" viewBox="0 0 1440 443" fill="none" xmlns="http://www.w3.org/2000/svg">
<g opacity="0.02">
<path d="M1440 343.339H1372.97V187.552C1372.97 172.76 1370.01 160.926 1364.09 152.05C1358.17 143.019 1348.6 138.504 1335.36 138.504C1322.13 138.504 1311.46 142.63 1303.36 150.883C1295.27 159.135 1291.22 171.592 1291.22 188.253V343.339H1224.19V184.516C1224.19 168.634 1220.99 157.033 1214.61 149.715C1208.23 142.241 1198.03 138.504 1184.01 138.504C1170 138.504 1159.57 142.708 1152.72 151.116C1145.86 159.369 1142.44 171.748 1142.44 188.253V343.339H1075.41V88.7546H1139.64V126.125H1140.57C1155.52 96.8515 1180.12 82.2148 1214.38 82.2148C1245.52 82.2148 1268.56 95.7616 1283.51 122.855C1300.48 95.7616 1323.14 82.2148 1351.48 82.2148C1377.64 82.2148 1398.89 89.6889 1415.24 104.637C1431.75 119.429 1440 140.294 1440 167.232V343.339Z" fill="black"/>
<path d="M1029.14 343.339H965.145V307.37H964.211C947.239 335.865 921.391 350.112 886.668 350.112C859.73 350.112 838.554 342.171 823.138 326.288C807.723 310.406 800.016 287.05 800.016 256.219V88.7539H867.048V246.643C867.048 262.837 870.786 274.749 878.26 282.378C885.734 289.853 896.478 293.59 910.491 293.59C925.595 293.59 937.974 288.607 947.628 278.641C957.282 268.52 962.109 254.195 962.109 235.666V88.7539H1029.14V343.339Z" fill="black"/>
<path d="M619.683 343.339H552.65V0H619.683V185.45L703.766 88.7543H786.214L696.292 187.318L788.55 343.339H708.204L647.477 234.265L619.683 262.993V343.339Z" fill="black"/>
<path d="M452.667 216.047C452.667 191.756 447.606 172.76 437.485 159.057C427.52 145.355 412.416 138.504 392.174 138.504C373.333 138.504 358.541 144.966 347.797 157.89C337.053 170.658 331.681 190.044 331.681 216.047C331.681 241.583 336.897 260.891 347.329 273.971C357.762 287.05 372.71 293.59 392.174 293.59C412.26 293.59 427.364 286.817 437.485 273.27C447.606 259.723 452.667 240.649 452.667 216.047ZM521.568 216.047C521.568 257.621 509.579 290.398 485.599 314.377C461.776 338.201 430.634 350.113 392.174 350.113C354.336 350.113 323.272 338.279 298.982 314.611C274.847 290.788 262.779 257.933 262.779 216.047C262.779 173.85 274.847 140.995 298.982 117.483C323.272 93.9709 354.336 82.2148 392.174 82.2148C430.945 82.2148 462.165 94.2823 485.833 118.417C509.656 142.397 521.568 174.94 521.568 216.047Z" fill="black"/>
<path d="M63.9965 221.886C63.9965 244.308 69.1349 262.137 79.4117 275.372C89.6886 288.452 104.17 294.992 122.855 294.992C139.983 294.992 153.452 287.673 163.261 273.037C173.071 258.244 177.976 239.871 177.976 217.916C177.976 192.691 172.915 173.461 162.794 160.225C152.829 146.834 138.893 140.139 120.986 140.139C101.834 140.139 87.5086 147.146 78.0104 161.159C68.6678 175.018 63.9965 195.26 63.9965 221.886ZM63.9965 125.658H65.1643C81.5138 96.6958 106.817 82.2148 141.073 82.2148C171.592 82.2148 196.817 93.893 216.747 117.249C236.834 140.45 246.877 172.448 246.877 213.244C246.877 253.262 237.535 286.116 218.849 311.808C200.32 337.345 173.927 350.113 139.671 350.113C106.194 350.113 82.2924 337.033 67.9671 310.874H67.0329V442.37H0V88.7546H63.9965V125.658Z" fill="black"/>
</g>
</svg>
