<svg width="717" height="224" viewBox="0 0 717 224" fill="none" xmlns="http://www.w3.org/2000/svg">
<path d="M717 171.131H683.623V93.5624C683.623 86.1971 682.15 80.3048 679.204 75.8856C676.258 71.3888 671.49 69.1404 664.9 69.1404C658.309 69.1404 652.999 71.195 648.967 75.3041C644.936 79.4132 642.92 85.6156 642.92 93.9113V171.131H609.543V92.0506C609.543 84.1425 607.954 78.3665 604.775 74.7226C601.596 71.0012 596.518 69.1404 589.54 69.1404C582.562 69.1404 577.368 71.2337 573.957 75.4204C570.545 79.5295 568.84 85.6931 568.84 93.9113V171.131H535.463V44.3695H567.444V62.9768H567.909C575.352 48.4011 587.602 41.1133 604.659 41.1133C620.165 41.1133 631.639 47.8584 639.082 61.3487C647.533 47.8584 658.813 41.1133 672.924 41.1133C685.949 41.1133 696.532 44.8347 704.673 52.2776C712.891 59.643 717 70.032 717 83.4447V171.131Z" fill="black"/>
<path d="M512.425 171.131H480.561V153.221H480.095C471.645 167.41 458.775 174.504 441.485 174.504C428.073 174.504 417.529 170.549 409.853 162.641C402.178 154.733 398.34 143.104 398.34 127.753V44.3691H431.717V122.985C431.717 131.048 433.577 136.979 437.299 140.778C441.02 144.499 446.37 146.36 453.347 146.36C460.868 146.36 467.032 143.879 471.838 138.917C476.645 133.878 479.049 126.745 479.049 117.519V44.3691H512.425V171.131Z" fill="black"/>
<path d="M308.553 171.132H275.176V0.177734H308.553V92.5162L350.419 44.3699H391.471L346.697 93.4465L392.634 171.132H352.628L322.392 116.822L308.553 131.126V171.132Z" fill="black"/>
<path d="M225.392 107.752C225.392 95.6577 222.872 86.199 217.833 79.3764C212.871 72.5537 205.35 69.1424 195.271 69.1424C185.89 69.1424 178.525 72.3599 173.175 78.7949C167.826 85.1524 165.151 94.8049 165.151 107.752C165.151 120.467 167.748 130.081 172.943 136.594C178.137 143.106 185.58 146.362 195.271 146.362C205.273 146.362 212.793 142.99 217.833 136.245C222.872 129.5 225.392 120.002 225.392 107.752ZM259.699 107.752C259.699 128.453 253.729 144.773 241.789 156.713C229.927 168.575 214.421 174.506 195.271 174.506C176.431 174.506 160.964 168.614 148.87 156.829C136.852 144.967 130.844 128.608 130.844 107.752C130.844 86.7417 136.852 70.3829 148.87 58.6758C160.964 46.9688 176.431 41.1152 195.271 41.1152C214.576 41.1152 230.121 47.1238 241.906 59.141C253.768 71.0806 259.699 87.2845 259.699 107.752Z" fill="black"/>
<path d="M31.8649 110.658C31.8649 121.822 34.4234 130.699 39.5404 137.289C44.6574 143.802 51.8677 147.058 61.1713 147.058C69.6996 147.058 76.406 143.414 81.2904 136.127C86.1748 128.761 88.617 119.613 88.617 108.681C88.617 96.1209 86.0973 86.546 81.0578 79.9559C76.0959 73.2883 69.1569 69.9545 60.2409 69.9545C50.7047 69.9545 43.572 73.4434 38.8426 80.4211C34.1908 87.3213 31.8649 97.4002 31.8649 110.658ZM31.8649 62.7442H32.4464C40.587 48.3236 53.1857 41.1133 70.2423 41.1133C85.4382 41.1133 97.9981 46.928 107.922 58.5576C117.923 70.1096 122.924 86.042 122.924 106.355C122.924 126.28 118.272 142.639 108.969 155.432C99.7426 168.146 86.6012 174.504 69.5446 174.504C52.8756 174.504 40.9747 167.991 33.8419 154.966H33.3767V224.001H0V44.3695H31.8649V62.7442Z" fill="black"/>
</svg>
