<svg width="24" height="24" viewBox="0 0 24 24" fill="none" xmlns="http://www.w3.org/2000/svg">
<path d="M3 11H8V22H4C3.46957 22 2.96086 21.7893 2.58579 21.4142C2.21071 21.0391 2 20.5304 2 20V12C2 11.7348 2.10536 11.4804 2.29289 11.2929C2.48043 11.1054 2.73478 11 3 11Z" fill="url(#paint0_linear_107_355)"/>
<path d="M22 3V20C21.9984 20.5299 21.7872 21.0377 21.4125 21.4125C21.0377 21.7872 20.5299 21.9984 20 22H4C4.52995 21.9984 5.03773 21.7872 5.41247 21.4125C5.7872 21.0377 5.99842 20.5299 6 20V3C6 2.73478 6.10536 2.48043 6.29289 2.29289C6.48043 2.10536 6.73478 2 7 2H21C21.2652 2 21.5196 2.10536 21.7071 2.29289C21.8946 2.48043 22 2.73478 22 3Z" fill="url(#paint1_linear_107_355)"/>
<path d="M10 15H18C18.2652 15 18.5196 14.8946 18.7071 14.7071C18.8946 14.5196 19 14.2652 19 14C19 13.7348 18.8946 13.4804 18.7071 13.2929C18.5196 13.1054 18.2652 13 18 13H10C9.73478 13 9.48043 13.1054 9.29289 13.2929C9.10536 13.4804 9 13.7348 9 14C9 14.2652 9.10536 14.5196 9.29289 14.7071C9.48043 14.8946 9.73478 15 10 15Z" fill="url(#paint2_linear_107_355)"/>
<path d="M18 17H10C9.73478 17 9.48043 17.1054 9.29289 17.2929C9.10536 17.4804 9 17.7348 9 18C9 18.2652 9.10536 18.5196 9.29289 18.7071C9.48043 18.8946 9.73478 19 10 19H18C18.2652 19 18.5196 18.8946 18.7071 18.7071C18.8946 18.5196 19 18.2652 19 18C19 17.7348 18.8946 17.4804 18.7071 17.2929C18.5196 17.1054 18.2652 17 18 17Z" fill="url(#paint3_linear_107_355)"/>
<path d="M18 5H10C9.44772 5 9 5.44772 9 6V10C9 10.5523 9.44772 11 10 11H18C18.5523 11 19 10.5523 19 10V6C19 5.44772 18.5523 5 18 5Z" fill="url(#paint4_linear_107_355)"/>
<defs>
<linearGradient id="paint0_linear_107_355" x1="2" y1="16.5" x2="8" y2="16.5" gradientUnits="userSpaceOnUse">
<stop stop-color="#F8F8F8"/>
<stop offset="1" stop-color="#A59D99"/>
</linearGradient>
<linearGradient id="paint1_linear_107_355" x1="5.87115" y1="6.4666" x2="21.6241" y2="20.6447" gradientUnits="userSpaceOnUse">
<stop stop-color="#2160E1"/>
<stop offset="1" stop-color="#638FE8"/>
</linearGradient>
<linearGradient id="paint2_linear_107_355" x1="9" y1="14" x2="19" y2="14" gradientUnits="userSpaceOnUse">
<stop stop-color="#DBDADA"/>
<stop offset="1" stop-color="#E6E3E2"/>
</linearGradient>
<linearGradient id="paint3_linear_107_355" x1="9" y1="18" x2="19" y2="18" gradientUnits="userSpaceOnUse">
<stop stop-color="#DBDADA"/>
<stop offset="1" stop-color="#E6E3E2"/>
</linearGradient>
<linearGradient id="paint4_linear_107_355" x1="9" y1="8" x2="19" y2="8" gradientUnits="userSpaceOnUse">
<stop stop-color="#DBDADA"/>
<stop offset="1" stop-color="#E6E3E2"/>
</linearGradient>
</defs>
</svg>
