<svg width="24" height="24" viewBox="0 0 24 24" fill="none" xmlns="http://www.w3.org/2000/svg">
<path d="M5 2H10V10H3C2.73478 10 2.48043 9.89464 2.29289 9.70711C2.10536 9.51957 2 9.26522 2 9V5C2 4.20435 2.31607 3.44129 2.87868 2.87868C3.44129 2.31607 4.20435 2 5 2Z" fill="url(#paint0_linear_107_348)"/>
<path d="M22 5V21C22.0013 21.1813 21.9525 21.3594 21.859 21.5147C21.7654 21.6699 21.6308 21.7964 21.47 21.88C21.3119 21.9666 21.133 22.0077 20.9529 21.9989C20.7729 21.9901 20.5989 21.9316 20.45 21.83L15 18.2L9.55 21.83C9.40177 21.9331 9.22753 21.9925 9.04717 22.0013C8.86682 22.0102 8.6876 21.9681 8.53 21.88C8.36917 21.7964 8.23457 21.6699 8.14105 21.5147C8.04753 21.3594 7.99871 21.1813 8 21V5C8 4.20435 7.68393 3.44129 7.12132 2.87868C6.55871 2.31607 5.79565 2 5 2H19C19.7949 2.00237 20.5566 2.31921 21.1187 2.8813C21.6808 3.4434 21.9976 4.20508 22 5Z" fill="url(#paint1_linear_107_348)"/>
<defs>
<linearGradient id="paint0_linear_107_348" x1="2" y1="6" x2="10" y2="6" gradientUnits="userSpaceOnUse">
<stop stop-color="#DBDADA"/>
<stop offset="1" stop-color="#C7C2BF"/>
</linearGradient>
<linearGradient id="paint1_linear_107_348" x1="6.7672" y1="6.46716" x2="22.4024" y2="19.7559" gradientUnits="userSpaceOnUse">
<stop stop-color="#2160E1"/>
<stop offset="1" stop-color="#638FE8"/>
</linearGradient>
</defs>
</svg>
